<?xml version="1.0" encoding="UTF-8"?>
<svg xmlns="http://www.w3.org/2000/svg" width="88" height="85" viewBox="0 0 88 85" fill="none">
  <path d="M66.9725 3H20.0275C17.6335 3 15.3369 3.94622 13.6442 5.62948C11.951 7.31326 11 9.59647 11 11.9777V73.0223C11 75.4035 11.9509 77.6867 13.6442 79.3705C15.337 81.0538 17.6335 82 20.0275 82H66.9725C69.3665 82 71.6632 81.0538 73.3558 79.3705C75.049 77.6867 76 75.4035 76 73.0223V11.9777C76 9.59647 75.0491 7.31326 73.3558 5.62948C71.663 3.94616 69.3665 3 66.9725 3ZM43.5 74.8189C42.5424 74.8189 41.6235 74.4408 40.9465 73.7669C40.2694 73.0936 39.8891 72.1803 39.8891 71.2282C39.8891 70.2753 40.2694 69.3622 40.9465 68.6889C41.6235 68.0156 42.5423 67.6369 43.5 67.6369C44.4577 67.6369 45.3765 68.0156 46.0535 68.6889C46.7306 69.3622 47.1109 70.2754 47.1109 71.2282C47.1109 72.1804 46.7306 73.0936 46.0535 73.7669C45.3765 74.4408 44.4577 74.8189 43.5 74.8189ZM48.9166 13.7728H38.0834C37.0865 13.7728 36.2776 12.969 36.2776 11.9777C36.2776 10.9858 37.0865 10.182 38.0834 10.182H48.9166C49.9135 10.182 50.7224 10.9858 50.7224 11.9777C50.7224 12.969 49.9135 13.7728 48.9166 13.7728Z" fill="#97BB3A"></path>
</svg>
