<?xml version="1.0" encoding="UTF-8"?>
<svg xmlns="http://www.w3.org/2000/svg" width="100" height="85" viewBox="0 0 100 85" fill="none">
  <path d="M49.9998 46.7144C54.7359 46.7144 59.2776 44.833 62.6266 41.484C65.9756 38.135 67.857 33.5934 67.857 28.8572C67.857 24.1211 65.9756 19.5794 62.6266 16.2304C59.2775 12.8814 54.7359 11 49.9998 11C45.2636 11 40.722 12.8814 37.373 16.2304C34.024 19.5795 32.1426 24.1211 32.1426 28.8572C32.1426 33.5934 34.024 38.135 37.373 41.484C40.722 44.833 45.2636 46.7144 49.9998 46.7144Z" fill="#97BB3A"></path>
  <path d="M28.5719 78.8574H71.4292C71.9027 78.8574 72.3571 78.6692 72.6919 78.3344C73.0267 77.9996 73.2149 77.5452 73.2149 77.0716V61.0001C73.2149 58.6324 72.2742 56.3613 70.6002 54.6862C68.9253 53.0121 66.654 52.0715 64.2863 52.0715H35.7147C33.347 52.0715 31.0759 53.0122 29.4008 54.6862C27.7267 56.3611 26.7861 58.6324 26.7861 61.0001V77.0716C26.7861 77.5452 26.9743 77.9996 27.3091 78.3344C27.6439 78.6692 28.0983 78.8574 28.5719 78.8574Z" fill="#97BB3A"></path>
  <path d="M21.4285 52.0717C21.4285 57.0031 17.4313 61.0003 12.4999 61.0003C7.56845 61.0003 3.57129 57.0031 3.57129 52.0717C3.57129 47.1402 7.56845 43.1431 12.4999 43.1431C17.4313 43.1431 21.4285 47.1402 21.4285 52.0717Z" fill="#97BB3A"></path>
  <path d="M1.78572 78.8571H23.2144C23.6879 78.8571 24.1423 78.669 24.4771 78.3342C24.812 77.9994 25.0001 77.5449 25.0001 77.0714V71.7142C25.0001 69.3465 24.0594 67.0755 22.3854 65.4004C20.7105 63.7262 18.4393 62.7856 16.0715 62.7856H8.92861C6.56084 62.7856 4.28981 63.7263 2.6147 65.4004C0.940595 67.0753 0 69.3465 0 71.7142V77.0714C0 77.5449 0.18814 77.9994 0.522961 78.3342C0.857783 78.669 1.31219 78.8571 1.78572 78.8571Z" fill="#97BB3A"></path>
  <path d="M96.4295 52.0717C96.4295 57.0031 92.4323 61.0003 87.5009 61.0003C82.5694 61.0003 78.5723 57.0031 78.5723 52.0717C78.5723 47.1402 82.5694 43.1431 87.5009 43.1431C92.4323 43.1431 96.4295 47.1402 96.4295 52.0717Z" fill="#97BB3A"></path>
  <path d="M76.7857 78.8571H98.2144C98.6879 78.8571 99.1423 78.669 99.4771 78.3342C99.812 77.9994 100 77.5449 100 77.0714V71.7142C100 69.3465 99.0594 67.0755 97.3854 65.4004C95.7105 63.7262 93.4393 62.7856 91.0715 62.7856H83.9286C81.5608 62.7856 79.2898 63.7263 77.6147 65.4004C75.9406 67.0753 75 69.3465 75 71.7142V77.0714C75 77.5449 75.1881 77.9994 75.523 78.3342C75.8578 78.669 76.3122 78.8571 76.7857 78.8571Z" fill="#97BB3A"></path>
</svg>
