<?xml version="1.0" encoding="UTF-8"?>
<svg xmlns="http://www.w3.org/2000/svg" width="88" height="85" viewBox="0 0 88 85" fill="none">
  <path d="M44.2292 44.5678C49.0785 44.5678 53.7287 42.6414 57.1577 39.2124C60.5867 35.7833 62.5131 31.1332 62.5131 26.2839C62.5131 21.4346 60.5867 16.7844 57.1577 13.3554C53.7286 9.92639 49.0785 8 44.2292 8C39.3799 8 34.7297 9.92635 31.3007 13.3554C27.8717 16.7845 25.9453 21.4346 25.9453 26.2839C25.9453 31.1332 27.8717 35.7833 31.3007 39.2124C34.7298 42.6414 39.3799 44.5678 44.2292 44.5678Z" fill="#97BB3A"></path>
  <path d="M22.2893 77.4788H66.1706C66.6555 77.4788 67.1208 77.2862 67.4636 76.9433C67.8064 76.6005 67.999 76.1353 67.999 75.6504V59.1949C67.999 56.7706 67.0358 54.4453 65.3218 52.7302C63.6069 51.0161 61.2814 50.053 58.8571 50.053H29.6029C27.1785 50.053 24.8532 51.0162 23.1381 52.7302C21.424 54.4451 20.4609 56.7706 20.4609 59.1949V75.6504C20.4609 76.1353 20.6536 76.6005 20.9964 76.9433C21.3392 77.2862 21.8045 77.4788 22.2893 77.4788Z" fill="#97BB3A"></path>
</svg>
