<?xml version="1.0" encoding="UTF-8"?>
<svg xmlns="http://www.w3.org/2000/svg" width="88" height="85" viewBox="0 0 88 85" fill="none">
  <path d="M31.8148 47.1292C33.6321 47.1292 35.3497 46.4282 36.6497 45.1552C37.2094 44.607 38.1039 44.607 38.6636 45.1552C39.9642 46.4282 41.6813 47.1292 43.4986 47.1292C45.3158 47.1292 47.0334 46.4282 48.3335 45.1552C48.8932 44.6077 49.7877 44.6077 50.3474 45.1552C51.648 46.4282 53.3651 47.1292 55.1823 47.1292C56.2703 47.1292 57.3266 46.8767 58.2836 46.3954L44.9574 20.8873C44.71 20.4131 44.2197 20.1156 43.685 20.1143C43.1459 20.1117 42.6588 20.4086 42.4089 20.8815L28.8848 46.4785C29.796 46.9051 30.792 47.1288 31.8149 47.1288L31.8148 47.1292Z" fill="#97BB3A"></path>
  <path d="M77.3541 82.8942L59.6172 48.947C58.2498 49.6429 56.7384 50.0079 55.1827 50.0079C53.0532 50.0079 51.0219 49.3287 49.3408 48.0743C47.6597 49.3287 45.6286 50.0079 43.4989 50.0079C41.3692 50.0079 39.3381 49.3287 37.657 48.0743C35.976 49.3287 33.9442 50.0079 31.8151 50.0079C30.3192 50.0079 28.8643 49.6706 27.5387 49.026L9.64715 82.8877C9.41132 83.3336 9.42675 83.8708 9.687 84.3033C9.94724 84.7351 10.4151 84.9999 10.9201 84.9999H76.0788C76.5826 84.9999 77.0491 84.737 77.31 84.3065C77.5702 83.876 77.5869 83.3401 77.3543 82.8941L77.3541 82.8942Z" fill="#97BB3A"></path>
  <path d="M36.3746 2.99635C36.3168 2.99635 36.2596 2.99699 36.2018 2.99892C34.7514 1.12965 32.4883 0 30.0965 0C27.1971 0 24.5586 1.63733 23.2457 4.16279C20.3978 4.45067 18.168 6.86165 18.168 9.7849C18.168 12.9008 20.703 15.4353 23.8184 15.4353H36.3747C39.8043 15.4353 42.5944 12.6451 42.5944 9.21555C42.5944 5.78661 39.8042 2.99635 36.3746 2.99635Z" fill="#97BB3A"></path>
  <path d="M15.799 20.9663C14.5858 19.4754 12.7422 18.579 10.7958 18.579C8.42903 18.579 6.27122 19.886 5.15177 21.9153C2.81087 22.2302 1 24.2409 1 26.6667C1 29.3103 3.15073 31.4612 5.79448 31.4612H15.7978C18.6915 31.4612 21.0452 29.1073 21.0452 26.2138C21.0452 23.3208 18.692 20.9668 15.799 20.9663Z" fill="#97BB3A"></path>
  <path d="M78.7778 3.62557C78.6602 3.62557 78.5419 3.62814 78.4231 3.63456C76.7292 1.37197 74.0334 0 71.1816 0C67.7314 0 64.5963 1.98047 63.0861 5.02068C59.7158 5.27644 57.0508 8.10136 57.0508 11.5359C57.0508 15.1389 59.9823 18.0705 63.5854 18.0705H78.7771C82.7599 18.0705 85.9998 14.8306 85.9998 10.8478C86.0004 6.8656 82.7606 3.62557 78.7778 3.62557Z" fill="#97BB3A"></path>
</svg>
