<?xml version="1.0" encoding="UTF-8"?>
<svg xmlns="http://www.w3.org/2000/svg" width="88" height="85" viewBox="0 0 88 85" fill="none">
  <path d="M79.1 7H8.1C6.21716 7 4.41125 7.74804 3.0792 9.0792C1.74796 10.4111 1 12.2172 1 14.1V70.9C1 72.7828 1.74804 74.5888 3.0792 75.9208C4.41108 77.252 6.21716 78 8.1 78H79.1C80.9828 78 82.7888 77.252 84.1208 75.9208C85.452 74.5889 86.2 72.7828 86.2 70.9V14.1C86.2 12.2172 85.452 10.4112 84.1208 9.0792C82.7889 7.74796 80.9828 7 79.1 7ZM39.34 14.1C40.0931 14.1 40.8158 14.3992 41.3483 14.9317C41.8808 15.4642 42.18 16.1869 42.18 16.94C42.18 17.6931 41.8808 18.4158 41.3483 18.9483C40.8158 19.4808 40.0931 19.78 39.34 19.78C38.5869 19.78 37.8642 19.4808 37.3317 18.9483C36.7992 18.4158 36.5 17.6931 36.5 16.94C36.5 16.1869 36.7992 15.4642 37.3317 14.9317C37.8642 14.3992 38.5869 14.1 39.34 14.1ZM26.56 14.1C27.3131 14.1 28.0358 14.3992 28.5683 14.9317C29.1008 15.4642 29.4 16.1869 29.4 16.94C29.4 17.6931 29.1008 18.4158 28.5683 18.9483C28.0358 19.4808 27.3131 19.78 26.56 19.78C25.8069 19.78 25.0842 19.4808 24.5517 18.9483C24.0192 18.4158 23.72 17.6931 23.72 16.94C23.72 16.1869 24.0192 15.4642 24.5517 14.9317C25.0842 14.3992 25.8069 14.1 26.56 14.1ZM13.78 14.1C14.5331 14.1 15.2558 14.3992 15.7883 14.9317C16.3208 15.4642 16.62 16.1869 16.62 16.94C16.62 17.6931 16.3208 18.4158 15.7883 18.9483C15.2558 19.4808 14.5331 19.78 13.78 19.78C13.0269 19.78 12.3042 19.4808 11.7717 18.9483C11.2392 18.4158 10.94 17.6931 10.94 16.94C10.94 16.1869 11.2392 15.4642 11.7717 14.9317C12.3042 14.3992 13.0269 14.1 13.78 14.1ZM83.36 70.9C83.36 72.0297 82.9112 73.1137 82.1124 73.9123C81.3137 74.711 80.2296 75.1599 79.1001 75.1599H8.10008C6.97043 75.1599 5.88634 74.7111 5.08773 73.9123C4.28913 73.1136 3.84016 72.0295 3.84016 70.9V25.46H83.3602L83.36 70.9Z" fill="#97BB3A"></path>
  <path d="M10.9395 49.6001H27.9795C28.7637 49.6001 29.3995 50.3843 29.3995 51.0201V68.0601C29.3995 68.8443 28.7637 69.4801 27.9795 69.4801H10.9395C10.1554 69.4801 9.51953 68.6959 9.51953 68.0601V51.0201C9.51953 50.2359 10.1554 49.6001 10.9395 49.6001Z" fill="#97BB3A"></path>
  <path d="M10.9395 32.5601H76.2595C77.0437 32.5601 77.6795 33.3442 77.6795 33.9801V45.3401C77.6795 46.1242 77.0437 46.7601 76.2595 46.7601H10.9395C10.1554 46.7601 9.51953 45.9759 9.51953 45.3401V33.9801C9.51953 33.1959 10.1554 32.5601 10.9395 32.5601Z" fill="#97BB3A"></path>
  <path d="M33.6602 49.6001H76.2602C77.0444 49.6001 77.6802 50.3843 77.6802 51.0201V68.0601C77.6802 68.8443 77.0444 69.4801 76.2602 69.4801H33.6602C32.8761 69.4801 32.2402 68.6959 32.2402 68.0601V51.0201C32.2402 50.2359 32.8761 49.6001 33.6602 49.6001Z" fill="#97BB3A"></path>
</svg>
