<?xml version="1.0" encoding="UTF-8"?>
<svg xmlns="http://www.w3.org/2000/svg" width="96" height="85" viewBox="0 0 96 85" fill="none">
  <path d="M47.2792 6.0185C46.8849 6.06797 46.5031 6.19128 46.1539 6.3818L1.69341 29.6706C0.947623 30.0649 0.389391 30.7398 0.140549 31.5462C-0.107556 32.3533 -0.024855 33.2253 0.370185 33.9711C0.764489 34.7169 1.43939 35.2751 2.24649 35.5232C3.05282 35.7713 3.92489 35.6886 4.67064 35.2943L8.47492 33.3095V74.8248C8.47492 75.6666 8.80941 76.4744 9.40532 77.0703C10.0012 77.6655 10.8083 78 11.6508 78H83.6345C84.4762 78 85.2841 77.6655 85.88 77.0703C86.4751 76.4745 86.8096 75.6666 86.8104 74.8248V33.3095L90.6147 35.2943C91.3605 35.6886 92.2325 35.7713 93.0388 35.5232C93.8451 35.2751 94.5201 34.7169 94.9151 33.9711C95.3102 33.2253 95.3929 32.3532 95.144 31.5462C94.8959 30.7398 94.3377 30.0649 93.5919 29.6706L49.1314 6.3818C48.565 6.0761 47.9189 5.94908 47.2795 6.0185H47.2792Z" fill="#97BB3A"></path>
  <path d="M30.9183 56.7109C30.9183 57.3495 30.4059 57.8634 29.764 57.8634H27.108C26.4661 57.8634 25.9521 57.3495 25.9521 56.7109V42.8533C25.9521 42.2181 26.4646 41.7008 27.108 41.7008H29.7644C30.4044 41.7008 30.9187 42.2181 30.9187 42.8533L30.9183 56.7109Z" fill="#333333"></path>
  <path d="M38.6746 59.4801C38.6746 60.374 37.9486 61.0938 37.0595 61.0938H33.3396C32.4473 61.0938 31.7197 60.3744 31.7197 59.4801V40.0799C31.7197 39.189 32.4473 38.4663 33.3396 38.4663H37.061C37.95 38.4663 38.676 39.189 38.676 40.0799V59.4801H38.6746Z" fill="#333333"></path>
  <path d="M25.2604 51.1548C25.2604 51.8708 24.6832 52.4498 23.9639 52.4498L23.1281 52.4495C22.4136 52.4495 21.833 51.8723 21.833 51.1544V48.4061C21.833 47.6931 22.4117 47.1111 23.1281 47.1111H23.9639C24.6817 47.1111 25.2604 47.6916 25.2604 48.4061V51.1548Z" fill="#333333"></path>
  <path d="M64.4824 56.7109C64.4824 57.3495 64.9963 57.8634 65.635 57.8634H68.2943C68.9328 57.8634 69.4501 57.3495 69.4501 56.7109V42.8533C69.4501 42.2181 68.9329 41.7008 68.2943 41.7008H65.635C64.9964 41.7008 64.4824 42.2181 64.4824 42.8533V56.7109Z" fill="#333333"></path>
  <path d="M56.7256 59.4801C56.7256 60.374 57.4516 61.0938 58.3422 61.0938H62.0654C62.9563 61.0938 63.679 60.3744 63.679 59.4801V40.0799C63.679 39.189 62.9564 38.4663 62.0654 38.4663H58.3422C57.4513 38.4663 56.7256 39.189 56.7256 40.0799V59.4801Z" fill="#333333"></path>
  <path d="M70.1406 51.1548C70.1406 51.8708 70.7178 52.4499 71.4357 52.4499H72.273C72.989 52.4499 73.5681 51.8727 73.5681 51.1548V48.4061C73.5681 47.6931 72.9909 47.1111 72.273 47.1111H71.4357C70.7197 47.1111 70.1406 47.6916 70.1406 48.4061V51.1548Z" fill="#333333"></path>
  <path d="M40.2461 48.4482H55.1554V51.1157H40.2461V48.4482Z" fill="#333333"></path>
</svg>
